<?xml version="1.0" standalone="no"?>
<!DOCTYPE svg PUBLIC "-//W3C//DTD SVG 20010904//EN"
 "http://www.w3.org/TR/2001/REC-SVG-20010904/DTD/svg10.dtd">
<svg version="1.0" xmlns="http://www.w3.org/2000/svg"
 width="1000.000000pt" height="1000.000000pt" viewBox="0 0 1000.000000 1000.000000"
 preserveAspectRatio="xMidYMid meet">

<g transform="translate(0.000000,1000.000000) scale(0.100000,-0.100000)"
fill="#000000" stroke="none">
<path d="M4370 8124 c-42 -18 -86 -58 -108 -99 -11 -19 -18 -66 -22 -130 l-5
-100 -985 -5 -985 -5 -57 -27 c-79 -37 -132 -82 -177 -149 -77 -115 -72 2 -69
-1734 l3 -1550 32 -67 c58 -123 166 -211 291 -237 35 -7 244 -11 624 -11 l570
0 -6 -27 c-13 -53 -87 -197 -136 -263 -93 -126 -194 -212 -519 -446 -288 -206
-430 -389 -491 -630 -7 -30 -19 -47 -47 -65 -21 -13 -48 -42 -60 -64 -22 -38
-23 -48 -20 -230 l2 -190 2784 -3 c2050 -1 2787 1 2797 9 11 9 14 52 14 191 0
218 -9 245 -104 303 -9 6 -25 43 -36 83 -60 217 -196 387 -470 587 -67 50
-167 123 -222 163 -122 90 -256 217 -314 298 -45 62 -118 208 -130 257 l-6 27
570 0 c380 0 589 4 624 11 125 26 233 114 291 237 l32 67 3 1550 c3 1736 8
1619 -69 1734 -45 67 -98 112 -177 149 l-57 27 -985 5 -985 5 -5 101 c-4 88
-8 106 -33 142 -15 23 -46 54 -69 69 l-42 28 -605 2 c-525 2 -611 0 -641 -13z
m1248 -38 c31 -16 74 -61 91 -93 6 -12 11 -62 11 -112 l0 -91 -720 0 -720 0 0
90 c0 59 5 101 14 118 15 29 59 73 91 90 14 8 200 11 613 12 491 0 598 -2 620
-14z m1254 -754 c82 -40 157 -119 190 -200 l23 -57 0 -1175 0 -1175 -31 -65
c-37 -79 -79 -128 -142 -168 -104 -66 25 -62 -1912 -62 -1937 0 -1808 -4
-1912 62 -63 40 -105 89 -142 168 l-31 65 0 1175 0 1175 23 57 c39 97 123 177
230 219 45 17 121 18 1842 16 l1795 -2 67 -33z m823 -4782 c57 -35 65 -67 65
-254 l0 -166 -2760 0 -2760 0 0 168 c0 186 7 214 65 252 30 20 58 20 2694 20
2653 0 2664 0 2696 -20z"/>
<path d="M4873 6546 c-148 -28 -269 -111 -323 -221 -22 -43 -25 -64 -25 -155
0 -98 2 -109 30 -160 34 -63 104 -120 180 -149 28 -11 118 -33 200 -51 173
-37 243 -61 274 -94 62 -65 38 -172 -48 -216 -121 -61 -371 -39 -518 46 -54
31 -84 30 -117 -2 -35 -36 -36 -100 -2 -141 76 -90 365 -153 566 -124 164 24
281 96 345 213 28 49 30 61 30 153 0 116 -16 156 -86 219 -72 65 -117 81 -419
150 -64 15 -130 35 -147 46 -124 75 -76 248 81 292 99 27 260 7 368 -48 61
-31 102 -31 133 1 31 31 34 91 6 127 -25 31 -127 82 -208 102 -89 23 -233 28
-320 12z"/>
<path d="M6122 6549 c-224 -34 -383 -167 -459 -382 -35 -98 -44 -326 -19 -441
49 -217 210 -385 416 -434 185 -44 415 -11 545 78 66 46 79 115 32 168 -26 28
-87 30 -131 3 -144 -88 -380 -85 -496 7 -47 38 -96 112 -116 175 -21 66 -29
244 -15 322 15 80 63 176 108 216 66 58 136 83 244 87 107 5 183 -11 256 -54
89 -51 173 -18 173 68 0 24 -8 51 -20 67 -23 34 -122 84 -207 105 -79 21 -229
28 -311 15z"/>
<path d="M3393 6530 c-12 -5 -30 -21 -40 -37 -17 -25 -18 -66 -21 -553 -2
-289 0 -544 3 -567 3 -23 16 -52 30 -67 21 -22 32 -26 84 -26 54 0 62 3 85 31
l26 31 0 224 0 224 103 0 c119 0 172 -12 209 -48 16 -14 64 -93 109 -176 153
-283 156 -286 248 -286 58 0 88 21 97 66 5 25 -7 56 -67 170 -95 183 -131 239
-174 266 -19 13 -35 25 -35 28 0 3 26 16 58 30 77 33 143 101 172 176 35 90
34 227 -4 309 -50 111 -150 184 -283 205 -73 12 -570 12 -600 0z m555 -185
c104 -31 155 -123 131 -235 -13 -60 -38 -94 -92 -123 -38 -20 -58 -22 -234
-25 l-193 -4 0 201 0 201 168 0 c123 0 183 -4 220 -15z"/>
<path d="M1505 7769 c-58 -31 -75 -48 -101 -104 l-24 -50 0 -2040 c0 -1952 1
-2042 19 -2080 64 -141 243 -178 357 -73 81 75 75 -125 72 2174 l-3 2050 -28
42 c-44 67 -97 96 -181 99 -57 3 -79 -1 -111 -18z m148 -20 c44 -12 101 -59
125 -103 16 -29 17 -170 17 -2066 0 -2015 0 -2035 -20 -2074 -32 -63 -85 -99
-154 -104 -84 -6 -145 27 -182 100 -18 36 -19 95 -19 2073 0 1706 2 2041 14
2068 18 43 65 85 112 102 48 17 59 18 107 4z"/>
<path d="M8293 7769 c-48 -23 -89 -67 -110 -116 -11 -27 -13 -384 -13 -2075 0
-1955 1 -2045 19 -2083 35 -78 122 -135 207 -135 81 0 169 58 205 135 18 39
19 114 19 2081 l0 2042 -28 53 c-55 107 -192 151 -299 98z m150 -20 c47 -13
106 -63 123 -106 12 -27 14 -381 14 -2068 0 -1978 -1 -2037 -19 -2073 -37 -73
-98 -106 -182 -100 -69 5 -122 41 -154 104 -20 39 -20 59 -20 2074 0 1878 1
2037 17 2065 24 44 70 85 114 100 48 17 59 18 107 4z"/>
</g>
</svg>
